<?xml version="1.0" encoding="utf-8"?>
<!-- Generator: Adobe Illustrator 27.5.0, SVG Export Plug-In . SVG Version: 6.00 Build 0)  -->
<svg version="1.1" id="Capa_1" xmlns="http://www.w3.org/2000/svg" xmlns:xlink="http://www.w3.org/1999/xlink" x="0px" y="0px"
	 viewBox="0 0 512 512" style="enable-background:new 0 0 512 512;" xml:space="preserve">
<style type="text/css">
	.st0{fill:#FFFFFF;}
</style>
<g>
	<path class="st0" d="M188.8,377.6c37.5,37.5,98.3,37.5,135.8,0l0,0l68.5-68.5c12.7-12.3,13.1-32.5,0.8-45.2s-32.5-13.1-45.2-0.8
		c-0.3,0.3-0.5,0.5-0.8,0.8l-59.4,59.3L288,32c0-17.7-14.3-32-32-32l0,0c-17.7,0-32,14.3-32,32l0.4,290.7l-58.9-58.9
		c-12.7-12.3-33-11.9-45.2,0.8c-12,12.4-12,32.1,0,44.5L188.8,377.6z"/>
	<path class="st0" d="M480,309.3c-17.7,0-32,14.3-32,32v97.9c0,4.8-3.9,8.7-8.7,8.7H72.7c-4.8,0-8.7-3.9-8.7-8.7v-97.9
		c0-17.7-14.3-32-32-32s-32,14.3-32,32v97.9C0,479.4,32.6,512,72.7,512h366.5c40.1,0,72.7-32.6,72.7-72.7v-97.9
		C512,323.7,497.7,309.3,480,309.3z"/>
</g>
</svg>
